<?xml version="1.0" encoding="UTF-8" standalone="no"?>
<svg
   xmlns:dc="http://purl.org/dc/elements/1.1/"
   xmlns:cc="http://creativecommons.org/ns#"
   xmlns:rdf="http://www.w3.org/1999/02/22-rdf-syntax-ns#"
   xmlns:svg="http://www.w3.org/2000/svg"
   xmlns="http://www.w3.org/2000/svg"
   xmlns:sodipodi="http://sodipodi.sourceforge.net/DTD/sodipodi-0.dtd"
   xmlns:inkscape="http://www.inkscape.org/namespaces/inkscape"
   version="1.1"
   viewBox="0 0 184 182"
   width="184.0pt"
   height="182.0pt"
   id="svg12"
   sodipodi:docname="trios.svg"
   inkscape:export-filename="C:\Users\gcc91\Downloads\trios.png"
   inkscape:export-xdpi="211.11317"
   inkscape:export-ydpi="211.11317"
   inkscape:version="0.92.4 (5da689c313, 2019-01-14)">
  <metadata
     id="metadata18">
    <rdf:RDF>
      <cc:Work
         rdf:about="">
        <dc:format>image/svg+xml</dc:format>
        <dc:type
           rdf:resource="http://purl.org/dc/dcmitype/StillImage" />
      </cc:Work>
    </rdf:RDF>
  </metadata>
  <defs
     id="defs16" />
  <sodipodi:namedview
     pagecolor="#ffffff"
     bordercolor="#666666"
     borderopacity="1"
     objecttolerance="10"
     gridtolerance="10"
     guidetolerance="10"
     inkscape:pageopacity="0"
     inkscape:pageshadow="2"
     inkscape:window-width="690"
     inkscape:window-height="480"
     id="namedview14"
     showgrid="false"
     inkscape:zoom="0.97252747"
     inkscape:cx="122.66667"
     inkscape:cy="121.33333"
     inkscape:window-x="1543"
     inkscape:window-y="671"
     inkscape:window-maximized="0"
     inkscape:current-layer="svg12" />
  <path
     d="M 80.99 3.73 C 90.54 3.36 100.26 3.16 109.78 4.01 C 120.35 5.34 131.40 6.98 141.45 10.61 C 151.38 14.10 159.87 21.57 166.02 29.96 C 172.25 38.71 174.59 48.44 176.50 58.83 C 178.66 69.18 178.53 79.31 179.25 89.98 C 178.94 105.08 177.89 120.45 173.97 135.06 C 172.08 141.48 169.31 147.90 165.24 153.25 C 158.46 161.67 150.41 168.72 139.94 172.04 C 133.49 174.21 124.50 177.49 118.09 173.93 C 113.21 171.41 111.71 167.03 109.94 162.20 C 122.08 160.06 136.68 158.74 146.55 150.53 C 155.39 142.68 159.68 129.30 161.31 117.92 C 163.02 105.22 164.00 92.15 162.88 79.36 C 161.94 66.22 160.59 53.66 154.38 41.79 C 150.99 34.93 145.23 29.85 138.35 26.63 C 126.96 21.41 113.32 20.61 101.01 19.76 C 91.58 19.07 82.38 19.96 72.99 20.72 C 65.81 21.38 58.62 22.63 51.73 24.78 C 42.63 27.76 34.41 33.27 29.69 41.79 C 23.06 53.13 21.96 65.17 20.80 77.99 C 20.02 95.40 20.30 112.18 24.75 129.15 C 26.29 134.76 28.74 140.05 32.45 144.55 C 37.20 150.37 43.78 154.49 50.71 157.22 C 57.89 160.09 66.46 160.53 74.14 161.65 C 73.36 165.48 73.01 169.18 70.03 172.03 C 67.12 174.99 63.18 175.88 59.14 175.59 C 49.76 174.98 40.46 170.36 32.49 165.62 C 22.71 159.90 15.58 150.62 11.79 140.01 C 5.96 124.56 4.91 108.39 4.48 92.00 C 4.68 75.48 5.84 58.07 11.45 42.43 C 16.17 29.63 25.59 18.81 38.08 13.12 C 51.25 7.21 66.73 5.18 80.99 3.73 Z"
     fill="#999999"
     id="path4" />
  <path
     d="M 62.18 58.83 C 69.32 59.11 76.12 64.70 76.42 72.12 C 76.49 77.51 72.62 83.40 67.47 85.19 C 63.28 86.39 58.16 85.95 54.54 83.38 C 47.74 78.75 47.46 67.04 54.00 62.07 C 56.33 60.28 59.24 59.06 62.18 58.83 Z"
     fill="#999999"
     id="path6" />
  <path
     d="M 117.31 60.06 C 120.96 59.00 125.31 59.32 128.44 61.61 C 131.00 63.52 132.82 66.47 133.65 69.53 C 135.21 75.03 132.27 81.42 127.47 84.33 C 121.46 87.38 113.54 86.04 110.09 79.85 C 105.30 72.63 108.87 62.36 117.31 60.06 Z"
     fill="#999999"
     id="path8" />
  <path
     d="M 67.06 101.90 C 69.54 101.38 72.23 101.59 74.76 101.62 C 76.60 106.10 78.24 110.75 81.96 114.06 C 87.52 119.26 97.17 118.90 102.41 113.43 C 105.57 110.24 107.39 105.51 109.17 101.46 C 112.36 101.68 115.51 102.06 118.66 102.58 C 117.56 108.60 116.10 114.24 111.91 118.91 C 105.63 126.53 95.29 129.64 85.76 127.40 C 75.52 125.27 67.27 116.24 65.66 105.97 C 65.47 104.56 65.33 102.40 67.06 101.90 Z"
     fill="#999999"
     id="path10" />
</svg>
